<?xml version="1.0" encoding="UTF-8"?>
<svg width="655px" height="786px" viewBox="0 0 655 786" version="1.1" xmlns="http://www.w3.org/2000/svg" xmlns:xlink="http://www.w3.org/1999/xlink">
    <!-- Generator: Sketch 52.5 (67469) - http://www.bohemiancoding.com/sketch -->
    <title>Fill 13</title>
    <desc>Created with Sketch.</desc>
    <g id="A.2-Ontego-GL" stroke="none" stroke-width="1" fill="none" fill-rule="evenodd">
        <g id="A.2.1-Features" transform="translate(-409.000000, -5162.000000)" fill="#F5F5F5">
            <path d="M614.272118,5948 C612.980311,5948 611.688504,5947.56687 610.622013,5946.73156 C608.999744,5945.46311 608.113504,5943.42123 608.278735,5941.31747 C608.368861,5940.18825 615.894387,5826.09029 520.300681,5734.51492 C385.652351,5605.52049 371.878085,5424.11773 486.052779,5283.08856 C515.208559,5247.07717 550.507932,5218.32064 590.959511,5197.6079 C707.237147,5137.65079 846.857432,5154.41898 946.672041,5240.30183 C1046.33644,5326.07639 1087.26869,5464.67695 1050.93287,5593.42388 C1039.08129,5635.57639 1015.57341,5681.07017 988.024881,5715.07062 C880.519515,5847.87038 627.054997,5943.60686 616.314975,5947.62875 C615.654051,5947.87625 614.963084,5948 614.272118,5948" id="Fill-13"></path>
        </g>
    </g>
</svg>