<?xml version="1.0" encoding="UTF-8"?>
<svg width="20px" height="32px" viewBox="0 0 20 32" version="1.1" xmlns="http://www.w3.org/2000/svg" xmlns:xlink="http://www.w3.org/1999/xlink">
    <!-- Generator: Sketch 52.4 (67378) - http://www.bohemiancoding.com/sketch -->
    <title>Oval</title>
    <desc>Created with Sketch.</desc>
    <defs>
        <path d="M526,144.277344 C531.333333,138.278622 534,133.822989 534,130.910444 C534,126.541626 530.418278,123 526,123 C521.581722,123 518,126.541626 518,130.910444 C518,133.822989 520.666667,138.278622 526,144.277344 Z" id="path-1"></path>
        <filter x="-28.1%" y="-21.1%" width="156.3%" height="170.3%" filterUnits="objectBoundingBox" id="filter-2">
            <feMorphology radius="2" operator="dilate" in="SourceAlpha" result="shadowSpreadOuter1"></feMorphology>
            <feOffset dx="0" dy="5" in="shadowSpreadOuter1" result="shadowOffsetOuter1"></feOffset>
            <feComposite in="shadowOffsetOuter1" in2="SourceAlpha" operator="out" result="shadowOffsetOuter1"></feComposite>
            <feColorMatrix values="0 0 0 0 0.294117647   0 0 0 0 0.294117647   0 0 0 0 0.294117647  0 0 0 0.4 0" type="matrix" in="shadowOffsetOuter1"></feColorMatrix>
        </filter>
    </defs>
    <g id="A.1-SAP" stroke="none" stroke-width="1" fill="none" fill-rule="evenodd">
        <g id="A.1.1.3-SAP" transform="translate(-662.000000, -2890.000000)">
            <g id="Group-17" transform="translate(146.000000, 2769.000000)">
                <g id="Oval">
                    <use fill="black" fill-opacity="1" filter="url(#filter-2)" xlink:href="#path-1"></use>
                    <path stroke="#FFFFFF" stroke-width="2" d="M525.252661,144.941787 C519.762114,138.766237 517,134.151125 517,130.910444 C517,125.986806 521.031942,122 526,122 C530.968058,122 535,125.986806 535,130.910444 C535,134.151125 532.237886,138.766237 526.747339,144.941787 L526,145.782364 L525.252661,144.941787 Z" fill="#00527F" fill-rule="evenodd"></path>
                </g>
            </g>
        </g>
    </g>
</svg>