<?xml version="1.0" encoding="UTF-8"?>
<svg width="37px" height="33px" viewBox="0 0 37 33" version="1.1" xmlns="http://www.w3.org/2000/svg" xmlns:xlink="http://www.w3.org/1999/xlink">
    <!-- Generator: Sketch 52.4 (67378) - http://www.bohemiancoding.com/sketch -->
    <title>Group 9</title>
    <desc>Created with Sketch.</desc>
    <g id="x-Infografiken" stroke="none" stroke-width="1" fill="none" fill-rule="evenodd">
        <g id="xx_offline-sync" transform="translate(-322.000000, -735.000000)" fill="#0077B6">
            <g id="Group-6" transform="translate(110.000000, 567.000000)">
                <g id="Group-4">
                    <g id="Group-9" transform="translate(212.000000, 168.000000)">
                        <path d="M31.2714748,20.4760079 C29.6824803,26.1181101 24.5397292,30.0582741 18.765419,30.0582741 C13.3348037,30.0582741 8.48387635,26.5540705 6.59791056,21.5006359 L10.9111218,23.2775173 L12.1576094,20.6206565 L3.44249141,16.8235294 L-6.39488462e-14,25.6128472 L2.6921439,26.6898549 L4.11087484,23.0909649 C6.55633458,28.9703875 12.327873,33 18.7650231,33 C25.8222492,33 32.10735,28.18308 34.0499383,21.2866849 L34.4482759,19.8728352 L31.6694163,19.0621582 L31.2714748,20.4760079 Z" id="Path"></path>
                        <path d="M5.72820228,12.5235892 C7.31723329,6.88188995 12.4597067,2.94132299 18.2345455,2.94132299 C23.6652857,2.94132299 28.5163246,6.44592947 30.4023337,11.4993641 L26.0890233,9.7224827 L24.8425071,12.3789406 L33.5578254,16.1764706 L37,7.38715283 L34.3073982,6.31054803 L32.8886347,9.9090351 C30.4431187,4.02961249 24.6714476,3.01980663e-14 18.2345455,3.01980663e-14 C11.1775531,3.01980663e-14 4.89191185,4.81692004 2.94967484,11.7133151 L2.55172414,13.1271648 L5.33064755,13.9374388 L5.72820228,12.5235892 Z" id="Path"></path>
                    </g>
                </g>
            </g>
        </g>
    </g>
</svg>