<?xml version="1.0" encoding="UTF-8"?>
<svg width="92px" height="92px" viewBox="0 0 92 92" version="1.1" xmlns="http://www.w3.org/2000/svg" xmlns:xlink="http://www.w3.org/1999/xlink">
    <!-- Generator: Sketch 52.4 (67378) - http://www.bohemiancoding.com/sketch -->
    <title>Group 8</title>
    <desc>Created with Sketch.</desc>
    <g id="x-Infografiken" stroke="none" stroke-width="1" fill="none" fill-rule="evenodd">
        <g id="xx_offline-sync" transform="translate(-295.000000, -706.000000)">
            <g id="Group-6" transform="translate(110.000000, 567.000000)">
                <g id="Group-4">
                    <g id="Group-8" transform="translate(185.000000, 139.000000)">
                        <path d="M45.998993,92 C71.6146319,92 92,72.4961138 92,46 C92,19.5079491 71.6146319,0 45.998993,0 C20.3833541,0 0,19.5079491 0,46 C0,72.4961138 20.3833541,92 45.998993,92" id="Path" fill="#00A7DD"></path>
                        <path d="M46,16 C62.0975772,16 73,28.7730494 73,45.4979703 C73,62.2249209 62.0975772,75 46,75 C29.9064236,75 19,62.2249209 19,45.4979703 C19,28.7730494 29.9064236,16 46,16" id="Path" fill="#F5F5F5"></path>
                    </g>
                </g>
            </g>
        </g>
    </g>
</svg>