<?xml version="1.0" encoding="UTF-8"?>
<svg width="28px" height="25px" viewBox="0 0 28 25" version="1.1" xmlns="http://www.w3.org/2000/svg" xmlns:xlink="http://www.w3.org/1999/xlink">
    <!-- Generator: Sketch 52.4 (67378) - http://www.bohemiancoding.com/sketch -->
    <title>sync_small@2x</title>
    <desc>Created with Sketch.</desc>
    <g id="x-Infografiken" stroke="none" stroke-width="1" fill="none" fill-rule="evenodd">
        <g id="xx_offline-sync" transform="translate(-487.000000, -141.000000)" fill="#0077B6">
            <g id="Group-3" transform="translate(110.000000, 117.000000)">
                <g id="sync_small" transform="translate(377.000000, 24.000000)">
                    <path d="M23.6648998,15.5121272 C22.4624175,19.786447 18.5706058,22.7714198 14.2008576,22.7714198 C10.0912028,22.7714198 6.42023075,20.1167201 4.9930134,16.2883605 L8.25706518,17.6344828 L9.20035308,15.6217095 L2.60512864,12.745098 L0,19.4036721 L2.03729809,20.219587 L3.11093231,17.4931552 C4.96155049,21.9472633 9.32920117,25 14.200558,25 C19.5411616,25 24.2974541,21.3508181 25.7675209,16.1262764 L26.0689655,15.0551782 L23.9660448,14.441029 L23.6648998,15.5121272 Z" id="Path"></path>
                    <path d="M4.33485578,9.48756757 C5.53736574,5.21355299 9.42896723,2.22827499 13.7991155,2.22827499 C17.9088649,2.22827499 21.5799213,4.8832799 23.0071715,8.71163948 L19.7430446,7.36551719 L18.7997351,9.37798528 L25.3951111,12.254902 L28,5.5963279 L25.9623554,4.78071821 L24.8886965,7.50684477 C23.0380358,3.05273674 18.6702847,0 13.7991155,0 C8.45868883,0 3.70198735,3.64918185 2.23218637,8.8737236 L1.93103448,9.94482181 L4.03400355,10.5586658 L4.33485578,9.48756757 Z" id="Path"></path>
                </g>
            </g>
        </g>
    </g>
</svg>