<?xml version="1.0" encoding="UTF-8"?>
<svg width="334px" height="340px" viewBox="0 0 334 340" version="1.1" xmlns="http://www.w3.org/2000/svg" xmlns:xlink="http://www.w3.org/1999/xlink">
    <!-- Generator: Sketch 52.5 (67469) - http://www.bohemiancoding.com/sketch -->
    <title>Group 4</title>
    <desc>Created with Sketch.</desc>
    <defs>
        <rect id="path-1" x="5.98591549" y="88.562249" width="72.3337268" height="12.5533774"></rect>
        <filter x="-1.4%" y="-8.0%" width="102.8%" height="131.9%" filterUnits="objectBoundingBox" id="filter-2">
            <feOffset dx="0" dy="2" in="SourceAlpha" result="shadowOffsetOuter1"></feOffset>
            <feColorMatrix values="0 0 0 0 0   0 0 0 0 0.608   0 0 0 0 0.816  0 0 0 1 0" type="matrix" in="shadowOffsetOuter1"></feColorMatrix>
        </filter>
        <rect id="path-3" x="6.22535211" y="106.445131" width="72.3337268" height="12.5533774"></rect>
        <filter x="-1.4%" y="-8.0%" width="102.8%" height="131.9%" filterUnits="objectBoundingBox" id="filter-4">
            <feOffset dx="0" dy="2" in="SourceAlpha" result="shadowOffsetOuter1"></feOffset>
            <feColorMatrix values="0 0 0 0 0   0 0 0 0 0.608   0 0 0 0 0.816  0 0 0 1 0" type="matrix" in="shadowOffsetOuter1"></feColorMatrix>
        </filter>
        <circle id="path-5" cx="23.5" cy="23.5" r="23.5"></circle>
        <filter x="-19.1%" y="-19.1%" width="138.3%" height="138.3%" filterUnits="objectBoundingBox" id="filter-6">
            <feOffset dx="0" dy="0" in="SourceAlpha" result="shadowOffsetOuter1"></feOffset>
            <feGaussianBlur stdDeviation="3" in="shadowOffsetOuter1" result="shadowBlurOuter1"></feGaussianBlur>
            <feColorMatrix values="0 0 0 0 0.671   0 0 0 0 0.678   0 0 0 0 0.694  0 0 0 1 0" type="matrix" in="shadowBlurOuter1"></feColorMatrix>
        </filter>
    </defs>
    <g id="A.2-Ontego-GL" stroke="none" stroke-width="1" fill="none" fill-rule="evenodd">
        <g id="A.2.2.3-Offline" transform="translate(-702.000000, -1367.000000)">
            <g id="Group-4" transform="translate(702.000000, 1373.000000)">
                <path d="M57,285 L97.3476903,285 C124.961928,285 147.34769,262.614237 147.34769,235 L147.34769,124 C147.34769,96.3857625 169.733453,74 197.34769,74 L229,74" id="Path-3" stroke="#0077B6" stroke-width="4"></path>
                <g id="Group-13" transform="translate(219.000000, 14.000000)">
                    <g id="Group-12">
                        <g id="Group-11">
                            <rect id="Rectangle-14" stroke="#D0D0D0" stroke-width="3.9" fill="#EAEAEB" x="-0.752816901" y="-1.95" width="86.8450352" height="152.099594" rx="7.00128"></rect>
                            <polygon id="Rectangle" fill="#009BD0" points="0.10178027 0 84.8605312 0 84.8605312 20.9222956 0.10178027 20.9222956"></polygon>
                            <path d="M10.5651408,10.7117838 L74.1026408,10.7117838" id="Line-3" stroke="#FFFFFF" stroke-width="4.68"></path>
                            <g id="Group-5" transform="translate(0.778169, 135.970058)">
                                <rect id="Rectangle-10-Copy-2" fill="#F5F5F5" x="9.59232693e-14" y="0" width="41.7005211" height="12.3146916"></rect>
                                <rect id="Rectangle" fill="#009BD0" x="43.5774648" y="0" width="40.1485637" height="12.3146916"></rect>
                            </g>
                            <g id="search-bg">
                                <use fill="black" fill-opacity="1" filter="url(#filter-2)" xlink:href="#path-1"></use>
                                <use fill="#FFFFFF" fill-rule="evenodd" xlink:href="#path-1"></use>
                            </g>
                            <rect id="search-bg" fill="#FFFFFF" x="6.58450704" y="26.9277108" width="72.3337268" height="8.36462233"></rect>
                            <rect id="search-bg" fill="#FFFFFF" x="6.58450704" y="39.4939759" width="72.3337268" height="8.36462233"></rect>
                            <rect id="search-bg" fill="#FFFFFF" x="6.58450704" y="52.060241" width="72.3337268" height="8.36462233"></rect>
                            <rect id="search-bg" fill="#FFFFFF" x="6.58450704" y="65.8232932" width="72.3337268" height="8.36462233"></rect>
                            <g id="search-bg">
                                <use fill="black" fill-opacity="1" filter="url(#filter-4)" xlink:href="#path-3"></use>
                                <use fill="#FFFFFF" fill-rule="evenodd" xlink:href="#path-3"></use>
                            </g>
                            <rect id="Rectangle-14" stroke="#D0D0D0" stroke-width="3.9" x="-0.715823944" y="-1.95" width="86.8450352" height="152.099594" rx="7.00128"></rect>
                        </g>
                    </g>
                </g>
                <g id="Group-2" transform="translate(281.000000, 0.000000)">
                    <g id="Oval">
                        <use fill="black" fill-opacity="1" filter="url(#filter-6)" xlink:href="#path-5"></use>
                        <use fill="#FFFFFF" fill-rule="evenodd" xlink:href="#path-5"></use>
                    </g>
                </g>
                <path d="M6.10253906,326.522461 L1.74804688,326.522461 L1.74804688,329.673828 L6.79980469,329.673828 L6.79980469,331 L0.0869140625,331 L0.0869140625,321.046875 L6.75195312,321.046875 L6.75195312,322.379883 L1.74804688,322.379883 L1.74804688,325.189453 L6.10253906,325.189453 L6.10253906,326.522461 Z M10.0209713,326.871094 L10.0209713,331 L8.35983848,331 L8.35983848,321.046875 L12.0375729,321.046875 C13.1495576,321.046875 14.0085985,321.297524 14.6147213,321.798828 C15.2208441,322.300133 15.523901,323.01562 15.523901,323.945312 C15.523901,324.460289 15.3906015,324.903481 15.1239986,325.274902 C14.8573957,325.646323 14.4688905,325.943684 13.9584713,326.166992 C14.519021,326.344727 14.9223372,326.635252 15.1684322,327.038574 C15.4145272,327.441897 15.5375729,327.937497 15.5375729,328.525391 L15.5375729,329.352539 C15.5375729,329.644207 15.5740308,329.929035 15.6469479,330.207031 C15.7198649,330.485027 15.8429105,330.696939 16.0160885,330.842773 L16.0160885,331 L14.3071041,331 C14.1248115,330.849609 14.0074624,330.612632 13.9550533,330.289062 C13.9026442,329.965493 13.87644,329.648765 13.87644,329.338867 L13.87644,328.539062 C13.87644,328.028643 13.7306082,327.623048 13.43894,327.322266 C13.1472719,327.021483 12.7462343,326.871094 12.235815,326.871094 L10.0209713,326.871094 Z M10.0209713,325.538086 L11.9487057,325.538086 C12.6140736,325.538086 13.0994203,325.410483 13.4047604,325.155273 C13.7101004,324.900064 13.8627682,324.510419 13.8627682,323.986328 C13.8627682,323.485024 13.712379,323.091961 13.4115963,322.807129 C13.1108135,322.522297 12.6528103,322.379883 12.0375729,322.379883 L10.0209713,322.379883 L10.0209713,325.538086 Z M19.4491691,327.226562 L19.4491691,331 L17.7880363,331 L17.7880363,321.046875 L21.6776848,321.046875 C22.7759975,321.046875 23.6361777,321.330564 24.2582512,321.897949 C24.8803246,322.465335 25.1913566,323.211584 25.1913566,324.136719 C25.1913566,325.070968 24.8803246,325.819496 24.2582512,326.382324 C23.6361777,326.945153 22.7759975,327.226562 21.6776848,327.226562 L19.4491691,327.226562 Z M19.4491691,325.893555 L21.6776848,325.893555 C22.2929222,325.893555 22.7554827,325.729494 23.0653801,325.401367 C23.3752775,325.073241 23.5302238,324.656253 23.5302238,324.150391 C23.5302238,323.644529 23.3752775,323.222983 23.0653801,322.885742 C22.7554827,322.548501 22.2929222,322.379883 21.6776848,322.379883 L19.4491691,322.379883 L19.4491691,325.893555 Z M36.0291977,328.443359 C36.0291977,328.028644 35.8753906,327.689129 35.5677719,327.424805 C35.2601531,327.16048 34.7167015,326.923504 33.9374008,326.713867 C32.825416,326.422199 31.9697931,326.035972 31.3705062,325.555176 C30.7712194,325.074379 30.4715805,324.44434 30.4715805,323.665039 C30.4715805,322.862952 30.8031201,322.202151 31.4662094,321.682617 C32.1292986,321.163083 32.9849216,320.90332 34.0331039,320.90332 C35.1268594,320.90332 36.0052686,321.197263 36.6683578,321.785156 C37.3314471,322.37305 37.6515936,323.079423 37.628807,323.904297 L37.6151352,323.945312 L36.0223617,323.945312 C36.0223617,323.434893 35.8491864,323.021323 35.5028305,322.70459 C35.1564746,322.387856 34.6620134,322.229492 34.019432,322.229492 C33.4133092,322.229492 32.9473308,322.361652 32.6214828,322.625977 C32.2956348,322.890301 32.1327133,323.232094 32.1327133,323.651367 C32.1327133,324.029624 32.3093066,324.344074 32.6624984,324.594727 C33.0156903,324.845379 33.6001571,325.082356 34.4159164,325.305664 C35.4868853,325.592775 36.3003537,325.989255 36.8563461,326.495117 C37.4123385,327.000979 37.6903305,327.645829 37.6903305,328.429688 C37.6903305,329.259119 37.3587908,329.91878 36.6957016,330.408691 C36.0326123,330.898603 35.161039,331.143555 34.0809555,331.143555 C33.0418878,331.143555 32.1304385,330.868981 31.3465805,330.319824 C30.5627224,329.770668 30.1821923,329.017583 30.2049789,328.060547 L30.2186508,328.019531 L31.8182602,328.019531 C31.8182602,328.625654 32.0278935,329.077961 32.4471664,329.376465 C32.8664393,329.674969 33.4110302,329.824219 34.0809555,329.824219 C34.6961929,329.824219 35.1747038,329.700034 35.5165023,329.45166 C35.8583009,329.203287 36.0291977,328.86719 36.0291977,328.443359 Z M41.8411846,328.033203 L42.0052471,328.771484 L42.0462627,328.771484 L43.6663799,323.603516 L45.4847393,323.603516 L42.4222393,332.121094 C42.2262747,332.63607 41.9505613,333.075845 41.5950908,333.44043 C41.2396203,333.805015 40.7360446,333.987305 40.0843486,333.987305 C39.9476292,333.987305 39.800658,333.973633 39.6434307,333.946289 C39.4862033,333.918945 39.3346749,333.887044 39.1888408,333.850586 L39.3734111,332.56543 C39.4326562,332.569987 39.5169653,332.576823 39.6263408,332.585938 C39.7357164,332.595052 39.8177468,332.599609 39.8724346,332.599609 C40.1732173,332.599609 40.413612,332.497071 40.593626,332.291992 C40.7736399,332.086913 40.9206111,331.849936 41.0345439,331.581055 L41.3079814,330.911133 L38.621458,323.603516 L40.4329814,323.603516 L41.8411846,328.033203 Z M50.7977027,328.990234 C50.7977027,328.735025 50.6883288,328.523113 50.4695777,328.354492 C50.2508266,328.185872 49.8429531,328.037761 49.2459449,327.910156 C48.3618259,327.723306 47.69305,327.457847 47.2395973,327.11377 C46.7861445,326.769692 46.5594215,326.301435 46.5594215,325.708984 C46.5594215,325.08919 46.8214631,324.560549 47.3455543,324.123047 C47.8696454,323.685545 48.5600682,323.466797 49.4168434,323.466797 C50.3191916,323.466797 51.0358186,323.688963 51.5667457,324.133301 C52.0976728,324.577639 52.3517393,325.127926 52.3289527,325.78418 L52.3152809,325.825195 L50.7225074,325.825195 C50.7225074,325.519855 50.6062976,325.257814 50.3738746,325.039062 C50.1414516,324.820311 49.8224443,324.710938 49.4168434,324.710938 C49.0157997,324.710938 48.7104642,324.800943 48.5008277,324.980957 C48.2911913,325.160971 48.1863746,325.380858 48.1863746,325.640625 C48.1863746,325.900392 48.2854947,326.106607 48.4837379,326.259277 C48.6819811,326.411947 49.084158,326.547525 49.6902809,326.666016 C50.619973,326.857423 51.3092565,327.12744 51.7581519,327.476074 C52.2070474,327.824709 52.4314918,328.299802 52.4314918,328.901367 C52.4314918,329.566735 52.1569177,330.106769 51.6077613,330.521484 C51.0586049,330.9362 50.3351421,331.143555 49.4373512,331.143555 C48.4757578,331.143555 47.7169763,330.897463 47.160984,330.405273 C46.6049916,329.913083 46.3406713,329.347985 46.3680152,328.709961 L46.3816871,328.668945 L47.926609,328.668945 C47.9448382,329.097333 48.0997846,329.409504 48.3914527,329.605469 C48.6831209,329.801433 49.038586,329.899414 49.457859,329.899414 C49.8862465,329.899414 50.2166469,329.817384 50.4490699,329.65332 C50.6814929,329.489257 50.7977027,329.268231 50.7977027,328.990234 Z M56.1448459,321.805664 L56.1448459,323.603516 L57.4710178,323.603516 L57.4710178,324.833984 L56.1448459,324.833984 L56.1448459,328.921875 C56.1448459,329.227215 56.210926,329.444824 56.3430881,329.574707 C56.4752502,329.70459 56.6507042,329.769531 56.8694553,329.769531 C56.9606016,329.769531 57.0494679,329.761556 57.1360568,329.745605 C57.2226458,329.729655 57.3046762,329.708008 57.3821506,329.680664 L57.559885,330.897461 C57.4186082,330.974935 57.2499901,331.035319 57.0540256,331.078613 C56.8580611,331.121908 56.6552636,331.143555 56.4456271,331.143555 C55.834947,331.143555 55.3564362,330.964683 55.0100803,330.606934 C54.6637244,330.249184 54.490549,329.687504 54.490549,328.921875 L54.490549,324.833984 L53.3626193,324.833984 L53.3626193,323.603516 L54.490549,323.603516 L54.490549,321.805664 L56.1448459,321.805664 Z M62.2781219,331.143555 C61.2299395,331.143555 60.3948242,330.800622 59.7727508,330.114746 C59.1506773,329.42887 58.8396453,328.548182 58.8396453,327.472656 L58.8396453,327.199219 C58.8396453,326.123693 59.1483987,325.231612 59.7659148,324.522949 C60.3834309,323.814287 61.1570235,323.46224 62.0867156,323.466797 C63.0847675,323.466797 63.8492455,323.768714 64.3801726,324.372559 C64.9110998,324.976403 65.1765594,325.786453 65.1765594,326.802734 L65.1765594,327.780273 L60.5623016,327.780273 L60.5486297,327.814453 C60.5759736,328.402347 60.7480096,328.883136 61.064743,329.256836 C61.3814763,329.630536 61.8201112,329.817383 62.3806609,329.817383 C62.8272777,329.817383 63.2100864,329.762696 63.5290984,329.65332 C63.8481104,329.543945 64.1557245,329.38672 64.45195,329.181641 L64.9851531,330.268555 C64.7071569,330.51465 64.33802,330.722004 63.8777312,330.890625 C63.4174425,331.059246 62.8842447,331.143555 62.2781219,331.143555 Z M62.0867156,324.799805 C61.6765573,324.799805 61.3393211,324.962726 61.0749969,325.288574 C60.8106726,325.614422 60.6466118,326.027992 60.5828094,326.529297 L60.5964812,326.563477 L63.5290984,326.563477 L63.5290984,326.392578 C63.5290984,325.923175 63.4094707,325.540366 63.1702117,325.244141 C62.9309527,324.947915 62.5697909,324.799805 62.0867156,324.799805 Z M68.1926478,323.603516 L68.281515,324.567383 C68.5230527,324.21647 68.8261096,323.945313 69.1906947,323.753906 C69.5552799,323.562499 69.9768251,323.466797 70.4553432,323.466797 C70.9384185,323.466797 71.3531279,323.576171 71.6994838,323.794922 C72.0458397,324.013673 72.3056027,324.341795 72.4787807,324.779297 C72.7066464,324.369139 73.0074246,324.047853 73.3811244,323.81543 C73.7548242,323.583007 74.1923198,323.466797 74.6936244,323.466797 C75.4364667,323.466797 76.0232121,323.720863 76.4538783,324.229004 C76.8845445,324.737144 77.0998744,325.508458 77.0998744,326.542969 L77.0998744,331 L75.4387416,331 L75.4387416,326.536133 C75.4387416,325.907223 75.330507,325.465171 75.1140346,325.209961 C74.8975621,324.954751 74.5728583,324.827148 74.1399135,324.827148 C73.7844429,324.827148 73.4836647,324.922851 73.2375697,325.114258 C72.9914747,325.305665 72.8137421,325.563149 72.7043666,325.886719 C72.7043666,325.955078 72.7066452,326.014323 72.7112025,326.064453 C72.7157598,326.114584 72.7180385,326.162435 72.7180385,326.208008 L72.7180385,331 L71.0569057,331 L71.0569057,326.536133 C71.0569057,325.93001 70.9463924,325.493654 70.7253627,325.227051 C70.5043329,324.960448 70.1796291,324.827148 69.7512416,324.827148 C69.4140003,324.827148 69.1280331,324.892089 68.8933314,325.021973 C68.6586297,325.151856 68.472922,325.335285 68.3362025,325.572266 L68.3362025,331 L66.6750697,331 L66.6750697,323.603516 L68.1926478,323.603516 Z" id="ERP-System" fill="#0077B6"></path>
                <g id="Group-4-Copy-2" transform="translate(20.000000, 263.000000)">
                    <path d="M0,4.29268293 L0,34.3232683 C0,39.6677715 8.28252151,44 18.4996517,44 C28.7174785,44 37,39.6677715 37,34.3232683 L37,4.29268293" id="Fill-1"></path>
                    <path d="M0,8.58536585 L0,35.3694015 C0,40.1361206 8.28252151,44 18.4996517,44 C28.7174785,44 37,40.1361206 37,35.3694015 L37,8.58536585" id="Stroke-3" stroke="#0E75C4" stroke-width="3.24"></path>
                    <path d="M37,9.12195122 C37,14.1600467 28.7174785,18.2439024 18.5003483,18.2439024 C8.28252151,18.2439024 0,14.1600467 0,9.12195122 C0,4.08385578 8.28252151,0 18.5003483,0 C28.7174785,0 37,4.08385578 37,9.12195122" id="Path"></path>
                    <path d="M37,9.12195122 C37,14.1600467 28.7174785,18.2439024 18.5003483,18.2439024 C8.28252151,18.2439024 0,14.1600467 0,9.12195122 C0,4.08385578 8.28252151,0 18.5003483,0 C28.7174785,0 37,4.08385578 37,9.12195122 Z" id="Path" stroke="#0E75C4" stroke-width="3.24"></path>
                    <path d="M37,21.4634146 C37,26.7978686 28.7174785,31.1219512 18.5003483,31.1219512 C8.28252151,31.1219512 0,26.7978686 0,21.4634146" id="Path" stroke="#0E75C4" stroke-width="3.24"></path>
                </g>
                <g id="Group-8" transform="translate(102.000000, 135.000000)">
                    <path d="M45.998993,92 C71.6146319,92 92,72.4961138 92,46 C92,19.5079491 71.6146319,0 45.998993,0 C20.3833541,0 0,19.5079491 0,46 C0,72.4961138 20.3833541,92 45.998993,92" id="Path" fill="#00A7DD"></path>
                    <path d="M46,16 C62.0975772,16 73,28.7730494 73,45.4979703 C73,62.2249209 62.0975772,75 46,75 C29.9064236,75 19,62.2249209 19,45.4979703 C19,28.7730494 29.9064236,16 46,16" id="Path" fill="#FFFFFF"></path>
                </g>
            </g>
        </g>
    </g>
</svg>