<?xml version="1.0" encoding="UTF-8"?>
<svg width="310px" height="63px" viewBox="-30 0 310 63" version="1.1" xmlns="http://www.w3.org/2000/svg" xmlns:xlink="http://www.w3.org/1999/xlink">
    <!-- Generator: Sketch 52.4 (67378) - http://www.bohemiancoding.com/sketch -->
    <title>umlagern_04</title>
    <desc>Created with Sketch.</desc>
    <g id="x-Navigation-und-Components" stroke="none" stroke-width="1" fill="none" fill-rule="evenodd">
        <g id="Animation-Umlagerung" transform="translate(-213.000000, -796.000000)">
            <g id="umlagern_04" transform="translate(189.000000, 775.000000)">
                <text id="Bitte-scannen-Sie-de" font-family="Roboto-Regular, Roboto" font-size="18" font-weight="normal" line-spacing="24" fill="#2D333D">
                    <tspan x="90" y="35">Bitte scannen Sie den </tspan>
                    <tspan x="90" y="59">Zielort, um den Auftrag </tspan>
                    <tspan x="90" y="83">abzuschließen. </tspan>
                </text>
                <g id="Group" transform="translate(24.000000, 31.000000)" fill="#383D47">
                    <g>
                        <path d="M3.58333333,9.55555556 L3.58333333,3.58333333 L9.55555556,3.58333333 L9.55555556,0 L33.4444444,4.38831769e-15 L33.4444444,3.58333333 L39.4166667,3.58333333 L39.4166667,9.55555556 L43,9.55555556 L43,33.4444444 L39.4166667,33.4444444 L39.4166667,39.4166667 L33.4444444,39.4166667 L33.4444444,43 L9.55555556,43 L9.55555556,39.4166667 L3.58333333,39.4166667 L3.58333333,33.4444444 L0,33.4444444 L0,9.55555556 L3.58333333,9.55555556 Z M0,0 L43,0 L43,43 L0,43 L0,0 Z" id="Shape"></path>
                        <polygon id="Rectangle-path" points="7.16666667 11.9444444 11.9444444 11.9444444 11.9444444 31.0555556 7.16666667 31.0555556"></polygon>
                        <rect id="Rectangle-path" x="19.1111111" y="11.9444444" width="4.77777778" height="19.1111111"></rect>
                        <rect id="Rectangle-path" x="33.4444444" y="11.9444444" width="2.38888889" height="19.1111111"></rect>
                        <rect id="Rectangle-path" x="14.3333333" y="11.9444444" width="2.38888889" height="19.1111111"></rect>
                        <rect id="Rectangle-path" x="26.2777778" y="11.9444444" width="4.77777778" height="19.1111111"></rect>
                    </g>
                </g>
            </g>
        </g>
    </g>
</svg>